<svg width="10" height="12" viewBox="0 0 10 12" fill="none" xmlns="http://www.w3.org/2000/svg">
<path d="M5.00001 0C2.56422 0 0.582336 1.98189 0.582336 4.41792C0.582336 5.05333 0.712391 5.66 0.968692 6.22124C2.07323 8.63824 4.19095 11.1901 4.81383 11.9145C4.8605 11.9687 4.92853 11.9999 5.00013 11.9999C5.07173 11.9999 5.13976 11.9687 5.18643 11.9145C5.80907 11.1902 7.92678 8.63848 9.03169 6.22124C9.28812 5.66 9.41805 5.05333 9.41805 4.41792C9.4178 1.98189 7.43592 0 5.00001 0ZM5.00001 6.7126C3.73471 6.7126 2.70521 5.68309 2.70521 4.4178C2.70521 3.15237 3.73471 2.12287 5.00001 2.12287C6.26531 2.12287 7.29481 3.15237 7.29481 4.4178C7.29493 5.68309 6.26543 6.7126 5.00001 6.7126Z" fill="#03D4BF"/>
</svg>
