<svg width="7" height="16" viewBox="0 0 7 16" fill="none" xmlns="http://www.w3.org/2000/svg">
<path d="M2.13333 5.06667C1.51111 6.93333 1.55556 9.02222 2.13333 10.9333L4.08889 10.9333C4.35552 10.9333 4.57776 11.0667 4.62222 11.2889C4.93333 11.9556 5.37776 12.5778 5.95556 13.1556C6.22222 13.4222 6.22222 13.7778 5.95556 14.0444L4.44444 15.5556C4.17778 15.8222 3.82222 15.8222 3.55556 15.5556C-0.622222 11.3778 -0.622222 4.62222 3.55556 0.444444C3.82222 0.177778 4.17778 0.177778 4.44444 0.444444L6 2C6.26667 2.26667 6.26667 2.62222 6 2.88889C5.46667 3.42222 5.02222 4.04444 4.66667 4.75556C4.57778 4.93333 4.35556 5.06667 4.13333 5.11111L2.13333 5.06667Z" fill="#03D4BF"/>
</svg>
